<svg xmlns="http://www.w3.org/2000/svg" width="24" height="24" viewBox="0 0 24 24"><defs><style>.a{fill:rgba(230,230,230,0);}.b{fill:#ffc107;}.c{fill:#fd8f25;}.d{fill:#ff8f00;}.e{fill:#fff;}</style></defs><g transform="translate(0 0)"><rect class="a" width="24" height="24" transform="translate(0 0)"/><rect class="a" width="24" height="24" transform="translate(0 0)"/><g transform="translate(2 2)"><path class="b" d="M22.711,29a9.211,9.211,0,1,0,9.211,9.211A9.211,9.211,0,0,0,22.711,29Z" transform="translate(-12.711 -28.211)"/><path class="c" d="M20.5,46a10,10,0,1,1,10-10A10,10,0,0,1,20.5,46Zm0-18.421A8.421,8.421,0,1,0,28.921,36,8.446,8.446,0,0,0,20.5,27.579Z" transform="translate(-10.5 -26)"/><path class="d" d="M34,43a6.5,6.5,0,1,0,6.5,6.5A6.5,6.5,0,0,0,34,43Z" transform="translate(-24.002 -39.502)"/><path class="e" d="M14.292,3H12.833a.208.208,0,0,0-.208.208V8.833H12.59L8.715,3.088A.228.228,0,0,0,8.534,3H7.208A.208.208,0,0,0,7,3.208v8.75a.208.208,0,0,0,.208.208H8.667a.208.208,0,0,0,.208-.208V6.333H8.91l3.875,5.745a.24.24,0,0,0,.187.088h1.32a.208.208,0,0,0,.208-.208V3.208A.208.208,0,0,0,14.292,3Z" transform="translate(-0.898 2)"/></g></g></svg>