<svg width="24" height="24" viewBox="0 0 24 24" fill="none" xmlns="http://www.w3.org/2000/svg">
<g clip-path="url(#clip0_2087_2)">
<path d="M12 21C16.9706 21 21 16.9706 21 12C21 7.02944 16.9706 3 12 3C7.02944 3 3 7.02944 3 12C3 16.9706 7.02944 21 12 21Z" fill="#78849E" stroke="#78849E" stroke-width="1.2" stroke-linecap="round" stroke-linejoin="round"/>
<path d="M14.4 10C14.4 11.3255 13.3255 12.4 12 12.4C10.6745 12.4 9.6 11.3255 9.6 10C9.6 8.67452 10.6745 7.6 12 7.6C13.3255 7.6 14.4 8.67452 14.4 10Z" fill="white" stroke="white" stroke-width="1.2" stroke-linecap="round" stroke-linejoin="round"/>
<path d="M7.00006 18.0242C7.46663 17.1158 8.18009 16.3521 9.06133 15.8177C9.94258 15.2833 10.9572 14.9991 11.9927 14.9966C13.0282 14.9941 14.0442 15.2734 14.9281 15.8035C15.8119 16.3336 16.529 17.0939 17 18" fill="white"/>
<path d="M7.00006 18.0242C7.46663 17.1158 8.18009 16.3521 9.06133 15.8177C9.94258 15.2833 10.9572 14.9991 11.9927 14.9966C13.0282 14.9941 14.0442 15.2734 14.9281 15.8035C15.8119 16.3336 16.529 17.0939 17 18" stroke="white" stroke-width="1.2" stroke-linecap="round" stroke-linejoin="round"/>
<path d="M17 18.0093C16.5308 18.5947 15.8151 19.0861 14.9324 19.429C14.0497 19.7719 13.0344 19.9529 11.9991 19.9519C10.9638 19.9509 9.9488 19.768 9.06674 19.4235C8.18468 19.079 7.46996 18.5863 7.00182 18" fill="white"/>
<path d="M17 18.0093C16.5308 18.5947 15.8151 19.0861 14.9324 19.429C14.0497 19.7719 13.0344 19.9529 11.9991 19.9519C10.9638 19.9509 9.9488 19.768 9.06674 19.4235C8.18468 19.079 7.46996 18.5863 7.00182 18" stroke="white" stroke-width="1.2" stroke-linecap="round" stroke-linejoin="round"/>
</g>
<defs>
<clipPath id="clip0_2087_2">
<rect width="24" height="24" fill="white"/>
</clipPath>
</defs>
</svg>
