<svg xmlns="http://www.w3.org/2000/svg" width="16" height="16" viewBox="0 0 16 16"><defs><style>.a{fill:none;}.b{fill:#fff;}</style></defs><g transform="translate(-62 -625)"><rect class="a" width="16" height="16" transform="translate(62 625)"/><path class="b" d="M5.9,2a.593.593,0,0,0-.561.314L4.607,3.7,3.06,3.974a.592.592,0,0,0-.484.666L2.8,6.195,1.7,7.322a.592.592,0,0,0,0,.824L2.8,9.276l-.22,1.555a.592.592,0,0,0,.484.666l1.547.271.736,1.387a.593.593,0,0,0,.784.255l1.41-.69,1.411.689a.592.592,0,0,0,.783-.254l.736-1.387,1.547-.271a.594.594,0,0,0,.485-.668l-.22-1.555,1.092-1.128a.6.6,0,0,0,0-.824L12.278,6.193l.22-1.555a.593.593,0,0,0-.485-.666L10.466,3.7,9.73,2.315a.591.591,0,0,0-.782-.254l-1.411.689L6.126,2.06A.587.587,0,0,0,5.9,2ZM5.817,4.867A1.147,1.147,0,1,1,4.67,6.014,1.147,1.147,0,0,1,5.817,4.867Zm3.1.316L9.6,5.7,6.161,10.286l-.688-.515Zm-3.1.258a.573.573,0,1,0,.573.573A.573.573,0,0,0,5.817,5.441ZM9.258,8.308A1.147,1.147,0,1,1,8.111,9.455,1.147,1.147,0,0,1,9.258,8.308Zm0,.573a.573.573,0,1,0,.573.573A.573.573,0,0,0,9.258,8.882Z" transform="translate(62.463 625)"/></g></svg>